<svg width="110" height="102" viewBox="0 0 110 102" fill="none" xmlns="http://www.w3.org/2000/svg">
<g id="GETBOX 1" clip-path="url(#clip0_2030_4802)" filter="url(#filter0_d_2030_4802)">
<g id="Group">
<path id="Vector" d="M39.3192 32.8107L22.23 32.8107L22.23 37.6209L29.2986 37.6209C28.5701 38.6902 27.5612 39.5036 26.2743 40.0621C24.9865 40.6214 23.6019 40.9002 22.1203 40.9002C20.6379 40.9002 19.2779 40.6146 18.0395 40.0434C16.8002 39.473 15.8167 38.6349 15.0883 37.5291C14.3598 36.4241 13.9952 35.1185 13.9952 33.6123C13.9952 32.1307 14.353 30.837 15.0704 29.732C15.787 28.627 16.7645 27.777 18.0038 27.1812C19.2431 26.5862 20.615 26.2887 22.1212 26.2887C23.9427 26.2887 25.5764 26.6168 27.0223 27.273C28.4673 27.9292 29.4329 28.9619 29.9191 30.3704L39.2835 30.3338C38.822 28.0261 37.8011 26.0524 36.2227 24.4127C34.6434 22.7731 32.6391 21.5287 30.2106 20.6778C27.7813 19.8278 25.0732 19.4028 22.0846 19.4028C18.756 19.4028 15.7198 20.0165 12.9752 21.2431C10.2297 22.4696 8.05621 24.1645 6.45311 26.3261C4.84916 28.4876 4.04761 30.9161 4.04761 33.6131C4.04761 36.2609 4.84321 38.6664 6.43441 40.8279C8.02476 42.9903 10.1931 44.6903 12.9386 45.9288C15.6833 47.1672 18.7322 47.7869 22.0846 47.7869C26.3117 47.7869 29.9556 46.8519 33.0156 44.981L33.7084 47.0576L39.3566 47.0576L39.3201 35.9804L39.3201 32.8107L39.3192 32.8107Z" fill="white"/>
<path id="Vector_2" d="M71.0013 40.5354L51.1062 40.6816L51.1062 36.5642L67.9404 36.5642L67.9404 30.1875L51.1062 30.1875L51.1062 26.6167L71.037 26.6167L71.0013 20.0938L42.1055 20.0938L42.1055 47.0583L71.0013 47.0583L71.0013 40.5354Z" fill="white"/>
<path id="Vector_3" d="M84.668 47.0583L93.6313 47.0583L93.6313 27.4182L105 27.4182L105 20.0938L73.1531 20.0938L73.1531 27.3817L73.1531 27.4182L84.668 27.4182L84.668 47.0583Z" fill="white"/>
<path id="Vector_4" d="M33.161 63.4057C34.4725 62.9204 35.4568 62.1792 36.1122 61.183C36.7684 60.1876 37.0956 58.8999 37.0956 57.3206L37.0956 57.1752C37.0956 55.0868 36.2575 53.4709 34.5813 52.3294C32.9051 51.1878 30.6577 50.6047 27.84 50.5801L4.77605 50.5801L4.77605 77.5438L24.6712 77.5438L26.0924 77.5438L26.1655 77.5438C30.4163 77.52 33.6778 76.9428 35.949 75.8132C38.2202 74.6835 39.3558 72.7472 39.3558 70.0017L39.3558 69.8564C39.3558 67.9864 38.833 66.5465 37.7892 65.5384C36.7437 64.5294 35.2018 63.8188 33.161 63.4057ZM13.1928 56.1544L23.5772 56.1544L23.6138 56.1544C24.78 56.1544 25.6665 56.1969 26.2734 56.2819C26.8803 56.3677 27.3784 56.5794 27.7677 56.9194C28.1562 57.2602 28.3508 57.8187 28.3508 58.5956C28.3508 59.4464 28.1502 60.0533 27.7499 60.4171C27.3487 60.7818 26.8633 60.9943 26.2921 61.0546C25.7209 61.1158 24.8284 61.1456 23.6138 61.1456L19.8967 61.1456L18.1474 61.1456C17.3459 61.1218 15.6935 61.109 13.1919 61.109L13.1919 56.1544L13.1928 56.1544ZM29.517 70.6018C29.1039 71.003 28.5574 71.2461 27.8774 71.3303C27.1974 71.4153 26.1765 71.4578 24.8165 71.4578L23.4684 71.4578C22.9338 71.4578 21.9435 71.4518 20.4985 71.4399C19.0527 71.428 16.6183 71.4221 13.1928 71.4221L13.1928 66.0288L24.78 66.0288L24.8165 66.0288C26.1765 66.0288 27.1965 66.0713 27.8774 66.1563C28.5574 66.2422 29.1039 66.4725 29.517 66.8491C29.9301 67.2256 30.1367 67.8393 30.1367 68.6893C30.1367 69.5631 29.9301 70.2015 29.517 70.6018Z" fill="white"/>
<path id="Vector_5" d="M106 50.5791L95.8697 50.5791L89.2389 58.9601L82.6072 50.5791L72.4769 50.5791L83.0441 64.1706L72.4769 77.5428L82.6072 77.5428L89.2389 69.1992L95.8697 77.5428L106 77.5428L95.4694 64.1706L106 50.5791Z" fill="white"/>
<g id="Group_2" filter="url(#filter1_d_2030_4802)">
<path id="Vector_6" fill-rule="evenodd" clip-rule="evenodd" d="M64.6144 51.146C64.7028 51.1672 64.8107 51.2157 64.8575 51.2395C67.7398 53.0313 70.5703 54.7661 73.4433 56.5299C73.9202 56.8214 74.3639 57.0951 74.8637 57.3943C75.1391 57.5694 75.1391 57.6681 74.8917 57.8661C73.995 58.5852 73.1025 59.3094 72.2525 60.0242C71.0846 60.9915 69.949 61.9113 68.7768 62.8599C68.4827 63.1055 68.4547 63.1055 68.113 62.8836C65.6046 61.374 63.1048 59.8262 60.5709 58.3098C59.7762 57.8193 58.9755 57.317 58.1858 56.852C57.8866 56.6744 57.8866 56.5766 58.1374 56.3522C59.5994 55.1376 61.0894 53.9484 62.554 52.7321C63.143 52.2552 63.7176 51.7631 64.2922 51.2633C64.3619 51.2165 64.4835 51.146 64.6144 51.146Z" fill="url(#paint0_linear_2030_4802)"/>
<path id="Vector_7" fill-rule="evenodd" clip-rule="evenodd" d="M50.3148 51.167C50.467 51.1457 50.5392 51.2163 50.6115 51.263C51.7046 52.1598 52.7747 53.0778 53.8602 53.9703C54.8368 54.7667 55.7778 55.5326 56.6932 56.3341C56.7451 56.3528 56.7723 56.3783 56.8454 56.4021C57.0154 56.5772 57.0154 56.6571 56.7935 56.7761C56.1237 57.2249 55.4531 57.6236 54.7569 58.0137C52.127 59.6602 49.4716 61.2701 46.8417 62.8842C46.4677 63.0831 46.4677 63.1061 46.1456 62.8604C44.9284 61.8421 43.735 60.8493 42.4948 59.8565C41.6729 59.2326 40.9325 58.5628 40.1616 57.967C40.1361 57.944 40.0868 57.9202 40.0638 57.9202C39.7646 57.6236 39.7646 57.593 40.1361 57.3949C43.3873 55.3864 46.6666 53.3753 49.9417 51.3387C50.0904 51.2622 50.1907 51.1925 50.3148 51.167Z" fill="url(#paint1_linear_2030_4802)"/>
<path id="Vector_8" fill-rule="evenodd" clip-rule="evenodd" d="M68.4819 64.1509C68.6034 64.1509 68.6638 64.2257 68.7054 64.2724C69.7943 65.1879 70.8636 66.0829 71.9337 66.9797C72.7599 67.6801 73.5734 68.3949 74.3902 69.0613C74.6707 69.2662 74.6707 69.358 74.3622 69.5118C71.4101 71.245 68.453 72.9407 65.5332 74.707C65.2298 74.8422 64.9909 75.0062 64.7011 75.1737C64.5846 75.2527 64.435 75.2527 64.2905 75.0946C63.4448 74.3798 62.6551 73.6981 61.8051 72.9781C60.8404 72.1145 59.845 71.2705 58.8777 70.4562C58.5581 70.1595 58.5581 70.1366 58.927 69.9326C61.959 68.0991 65.0283 66.2376 68.0645 64.3804C68.1878 64.2962 68.3561 64.2495 68.4819 64.1509Z" fill="url(#paint2_linear_2030_4802)"/>
<path id="Vector_9" fill-rule="evenodd" clip-rule="evenodd" d="M50.3641 75.2204C50.3148 75.1966 50.2638 75.1737 50.1678 75.1269C46.9913 73.2629 43.8123 71.4039 40.6078 69.5399C40.5823 69.5399 40.5568 69.5118 40.5568 69.5118C40.3069 69.3393 40.3069 69.2662 40.5101 69.0868C40.9325 68.6967 41.4043 68.3465 41.8225 67.9776C42.9666 67.0009 44.1345 66.0345 45.3007 65.0417C45.5999 64.7994 45.9246 64.5232 46.1932 64.2733C46.3708 64.1262 46.4898 64.173 46.6675 64.2733C47.4597 64.768 48.2774 65.2355 49.0781 65.7378C51.3841 67.1548 53.7174 68.5377 56.0039 69.9326C56.0277 69.9564 56.0506 69.9861 56.0999 69.9861C56.3269 70.1357 56.3269 70.1825 56.1254 70.3508C55.6766 70.7758 55.2287 71.1523 54.785 71.5187C53.8619 72.3177 52.9464 73.0861 52.0284 73.8987C51.5779 74.3092 51.0875 74.707 50.6361 75.1269C50.5605 75.1737 50.5137 75.2204 50.3641 75.2204Z" fill="url(#paint3_linear_2030_4802)"/>
<path id="Vector_10" fill-rule="evenodd" clip-rule="evenodd" d="M57.8407 76.6262C57.8407 74.8421 57.8407 73.0384 57.8407 71.2449C57.8407 71.1964 57.8407 71.0978 57.8407 71.0749C57.8407 71.0069 57.8127 70.8785 57.9342 70.8292C58.0116 70.7757 58.1093 70.8785 58.1867 70.8998C58.6797 71.3503 59.205 71.7285 59.675 72.1442C60.9126 73.1701 62.1579 74.1833 63.4006 75.1974C63.7414 75.4728 64.0916 75.7439 64.3628 76.0193C64.5872 76.1689 64.7036 76.197 64.9093 76.0941C65.8715 75.5756 66.8201 75.0291 67.7636 74.5012C67.988 74.3984 68.0951 74.4545 68.0951 74.7069C68.0951 75.1736 68.0951 75.6037 68.0951 76.0423C68.0951 76.2531 68.0441 76.3644 67.8945 76.4724C66.152 77.523 64.4376 78.5557 62.7325 79.5885C61.2399 80.5082 59.7779 81.4287 58.264 82.3493C58.162 82.4096 58.0354 82.555 57.9351 82.4615C57.8135 82.4105 57.8416 82.2328 57.8416 82.1164C57.8407 80.2795 57.8407 78.4758 57.8407 76.6262Z" fill="url(#paint4_linear_2030_4802)"/>
<path id="Vector_11" fill-rule="evenodd" clip-rule="evenodd" d="M57.0698 76.6265C57.0698 78.42 57.0698 80.228 57.0698 82.0172C57.0698 82.0869 57.0698 82.1524 57.0698 82.2136C57.0698 82.4847 56.9669 82.5264 56.7451 82.3819C55.278 81.4945 53.7667 80.5739 52.3004 79.6865C50.6115 78.6121 48.8758 77.5751 47.1877 76.5143C46.9378 76.3834 46.8655 76.2525 46.8655 76.0196C46.891 75.6227 46.891 75.1977 46.891 74.7769C46.891 74.4828 46.9378 74.3987 47.2344 74.5712C48.1822 75.0761 49.1495 75.604 50.0904 76.1174C50.2638 76.1964 50.3641 76.1684 50.5129 76.0426C52.1032 74.7531 53.6638 73.4645 55.227 72.1683C55.7038 71.7943 56.173 71.4041 56.621 71.031C56.6932 70.9706 56.7935 70.9001 56.8683 70.8559C56.9661 70.8015 57.0392 70.8304 57.0689 70.9256C57.0689 71.031 57.0689 71.099 57.0689 71.1967C57.0698 73.0064 57.0698 74.8237 57.0698 76.6265Z" fill="url(#paint5_linear_2030_4802)"/>
</g>
</g>
</g>
<defs>
<filter id="filter0_d_2030_4802" x="0" y="0" width="110" height="110" filterUnits="userSpaceOnUse" color-interpolation-filters="sRGB">
<feFlood flood-opacity="0" result="BackgroundImageFix"/>
<feColorMatrix in="SourceAlpha" type="matrix" values="0 0 0 0 0 0 0 0 0 0 0 0 0 0 0 0 0 0 127 0" result="hardAlpha"/>
<feOffset dy="4"/>
<feGaussianBlur stdDeviation="2"/>
<feComposite in2="hardAlpha" operator="out"/>
<feColorMatrix type="matrix" values="0 0 0 0 0.34902 0 0 0 0 0.12549 0 0 0 0 0.992157 0 0 0 0.42 0"/>
<feBlend mode="normal" in2="BackgroundImageFix" result="effect1_dropShadow_2030_4802"/>
<feBlend mode="normal" in="SourceGraphic" in2="effect1_dropShadow_2030_4802" result="shape"/>
</filter>
<filter id="filter1_d_2030_4802" x="35.8477" y="51.146" width="43.2262" height="39.3462" filterUnits="userSpaceOnUse" color-interpolation-filters="sRGB">
<feFlood flood-opacity="0" result="BackgroundImageFix"/>
<feColorMatrix in="SourceAlpha" type="matrix" values="0 0 0 0 0 0 0 0 0 0 0 0 0 0 0 0 0 0 127 0" result="hardAlpha"/>
<feOffset dy="4"/>
<feGaussianBlur stdDeviation="2"/>
<feComposite in2="hardAlpha" operator="out"/>
<feColorMatrix type="matrix" values="0 0 0 0 0 0 0 0 0 0 0 0 0 0 0 0 0 0 0.25 0"/>
<feBlend mode="normal" in2="BackgroundImageFix" result="effect1_dropShadow_2030_4802"/>
<feBlend mode="normal" in="SourceGraphic" in2="effect1_dropShadow_2030_4802" result="shape"/>
</filter>
<linearGradient id="paint0_linear_2030_4802" x1="62.0195" y1="49.2577" x2="70.7382" y2="60.7038" gradientUnits="userSpaceOnUse">
<stop offset="0.605" stop-color="#5920FD"/>
<stop offset="0.725" stop-color="#361399"/>
<stop offset="1" stop-color="#351397"/>
</linearGradient>
<linearGradient id="paint1_linear_2030_4802" x1="43.9123" y1="49.2788" x2="52.6076" y2="60.7186" gradientUnits="userSpaceOnUse">
<stop offset="0.605" stop-color="#5920FD"/>
<stop offset="0.725" stop-color="#361399"/>
<stop offset="1" stop-color="#351397"/>
</linearGradient>
<linearGradient id="paint2_linear_2030_4802" x1="62.4316" y1="62.3937" x2="70.5417" y2="73.0564" gradientUnits="userSpaceOnUse">
<stop offset="0.605" stop-color="#5920FD"/>
<stop offset="0.725" stop-color="#361399"/>
<stop offset="1" stop-color="#351397"/>
</linearGradient>
<linearGradient id="paint3_linear_2030_4802" x1="44.1407" y1="62.4279" x2="52.225" y2="73.0608" gradientUnits="userSpaceOnUse">
<stop offset="0.605" stop-color="#5920FD"/>
<stop offset="0.725" stop-color="#361399"/>
<stop offset="1" stop-color="#351397"/>
</linearGradient>
<linearGradient id="paint4_linear_2030_4802" x1="60.2733" y1="68.9611" x2="68.9348" y2="75.9045" gradientUnits="userSpaceOnUse">
<stop offset="0.605" stop-color="#5920FD"/>
<stop offset="0.725" stop-color="#361399"/>
<stop offset="1" stop-color="#351397"/>
</linearGradient>
<linearGradient id="paint5_linear_2030_4802" x1="49.2883" y1="68.9826" x2="57.9151" y2="75.8879" gradientUnits="userSpaceOnUse">
<stop offset="0.605" stop-color="#5920FD"/>
<stop offset="0.725" stop-color="#361399"/>
<stop offset="1" stop-color="#351397"/>
</linearGradient>
<clipPath id="clip0_2030_4802">
<rect width="102" height="102" fill="white" transform="translate(4.00001)"/>
</clipPath>
</defs>
</svg>
