<svg width="110" height="97" viewBox="0 0 110 97" fill="none" xmlns="http://www.w3.org/2000/svg">
<g id="GETBOX 1" filter="url(#filter0_d_2002_20)">
<g id="Group">
<path id="Vector" d="M39.3192 32.8109L22.23 32.8109L22.23 37.621L29.2986 37.621C28.5701 38.6903 27.5611 39.5038 26.2743 40.0622C24.9865 40.6215 23.6018 40.9003 22.1203 40.9003C20.6379 40.9003 19.2779 40.6147 18.0394 40.0435C16.8001 39.4732 15.8167 38.6351 15.0882 37.5292C14.3598 36.4242 13.9951 35.1186 13.9951 33.6124C13.9951 32.1309 14.353 30.8372 15.0704 29.7322C15.787 28.6272 16.7645 27.7772 18.0038 27.1813C19.2431 26.5863 20.615 26.2888 22.1212 26.2888C23.9427 26.2888 25.5764 26.6169 27.0223 27.2731C28.4673 27.9293 29.4329 28.9621 29.9191 30.3705L39.2835 30.334C38.822 28.0262 37.8011 26.0525 36.2227 24.4129C34.6434 22.7732 32.6391 21.5288 30.2106 20.678C27.7813 19.828 25.0732 19.403 22.0846 19.403C18.756 19.403 15.7198 20.0167 12.9751 21.2432C10.2297 22.4698 8.0562 24.1647 6.4531 26.3262C4.84915 28.4878 4.0476 30.9162 4.0476 33.6133C4.0476 36.261 4.8432 38.6665 6.4344 40.8281C8.02475 42.9905 10.1931 44.6905 12.9386 45.9289C15.6832 47.1674 18.7322 47.787 22.0846 47.787C26.3116 47.787 29.9556 46.852 33.0156 44.9812L33.7084 47.0577L39.3566 47.0577L39.3201 35.9805L39.3201 32.8109L39.3192 32.8109Z" fill="white"/>
<path id="Vector_2" d="M71.0012 40.5357L51.1061 40.6819L51.1061 36.5645L67.9404 36.5645L67.9404 30.1878L51.1061 30.1878L51.1061 26.6169L71.0369 26.6169L71.0012 20.094L42.1055 20.094L42.1055 47.0586L71.0012 47.0586L71.0012 40.5357Z" fill="white"/>
<path id="Vector_3" d="M84.668 47.0586L93.6313 47.0586L93.6313 27.4185L105 27.4185L105 20.094L73.1531 20.094L73.1531 27.3819L73.1531 27.4185L84.668 27.4185L84.668 47.0586Z" fill="white"/>
<path id="Vector_4" d="M33.1609 63.4058C34.4725 62.9204 35.4568 62.1792 36.1121 61.183C36.7683 60.1877 37.0956 58.8999 37.0956 57.3206L37.0956 57.1753C37.0956 55.0868 36.2575 53.471 34.5813 52.3294C32.9051 51.1879 30.6577 50.6048 27.8399 50.5801L4.77605 50.5801L4.77604 77.5438L24.6711 77.5438L26.0923 77.5438L26.1654 77.5438C30.4163 77.52 33.6777 76.9429 35.9489 75.8132C38.2201 74.6836 39.3557 72.7473 39.3557 70.0018L39.3557 69.8564C39.3557 67.9864 38.833 66.5465 37.7892 65.5384C36.7437 64.5295 35.2018 63.8189 33.1609 63.4058ZM13.1927 56.1544L23.5772 56.1544L23.6137 56.1544C24.7799 56.1544 25.6665 56.1969 26.2734 56.2819C26.8803 56.3678 27.3784 56.5794 27.7677 56.9194C28.1561 57.2603 28.3508 57.8187 28.3508 58.5956C28.3508 59.4465 28.1502 60.0534 27.7498 60.4172C27.3486 60.7818 26.8633 60.9943 26.2921 61.0547C25.7209 61.1159 24.8284 61.1456 23.6137 61.1456L19.8967 61.1456L18.1474 61.1456C17.3458 61.1218 15.6934 61.1091 13.1919 61.1091L13.1919 56.1544L13.1927 56.1544ZM29.517 70.6019C29.1039 71.0031 28.5573 71.2462 27.8773 71.3303C27.1973 71.4153 26.1765 71.4578 24.8165 71.4578L23.4684 71.4578C22.9337 71.4578 21.9435 71.4519 20.4985 71.44C19.0526 71.4281 16.6182 71.4221 13.1927 71.4221L13.1927 66.0289L24.7799 66.0289L24.8165 66.0289C26.1765 66.0289 27.1965 66.0714 27.8773 66.1564C28.5573 66.2422 29.1039 66.4726 29.517 66.8491C29.9301 67.2257 30.1366 67.8394 30.1366 68.6894C30.1366 69.5632 29.9301 70.2015 29.517 70.6019Z" fill="white"/>
<path id="Vector_5" d="M106 50.5793L95.8697 50.5793L89.2389 58.9603L82.6072 50.5793L72.4769 50.5793L83.0441 64.1708L72.4769 77.543L82.6072 77.543L89.2389 69.1994L95.8697 77.543L106 77.543L95.4694 64.1708L106 50.5793Z" fill="white"/>
<g id="Group_2" filter="url(#filter1_d_2002_20)">
<path id="Vector_6" fill-rule="evenodd" clip-rule="evenodd" d="M64.6144 51.1462C64.7028 51.1675 64.8107 51.2159 64.8575 51.2397C67.7398 53.0315 70.5703 54.7664 73.4433 56.5301C73.9202 56.8217 74.3639 57.0954 74.8637 57.3946C75.1391 57.5697 75.1391 57.6683 74.8917 57.8663C73.995 58.5854 73.1025 59.3096 72.2525 60.0245C71.0846 60.9918 69.949 61.9115 68.7768 62.8601C68.4827 63.1057 68.4547 63.1057 68.113 62.8839C65.6046 61.3743 63.1048 59.8264 60.5709 58.31C59.7762 57.8196 58.9755 57.3172 58.1858 56.8523C57.8866 56.6746 57.8866 56.5769 58.1374 56.3525C59.5994 55.1378 61.0894 53.9487 62.554 52.7323C63.143 52.2555 63.7176 51.7633 64.2922 51.2635C64.3619 51.2168 64.4835 51.1462 64.6144 51.1462Z" fill="url(#paint0_linear_2002_20)"/>
<path id="Vector_7" fill-rule="evenodd" clip-rule="evenodd" d="M50.3148 51.1673C50.467 51.1461 50.5392 51.2166 50.6115 51.2634C51.7046 52.1601 52.7747 53.0781 53.8602 53.9706C54.8368 54.7671 55.7777 55.5329 56.6932 56.3345C56.745 56.3532 56.7723 56.3787 56.8454 56.4025C57.0154 56.5776 57.0153 56.6575 56.7935 56.7765C56.1237 57.2253 55.4531 57.6239 54.7569 58.0141C52.127 59.6605 49.4716 61.2704 46.8417 62.8846C46.4677 63.0835 46.4677 63.1064 46.1455 62.8608C44.9283 61.8425 43.735 60.8497 42.4948 59.8569C41.6729 59.233 40.9325 58.5632 40.1616 57.9673C40.1361 57.9444 40.0868 57.9206 40.0638 57.9206C39.7646 57.6239 39.7646 57.5933 40.1361 57.3953C43.3873 55.3867 46.6666 53.3756 49.9417 51.339C50.0904 51.2625 50.1907 51.1928 50.3148 51.1673Z" fill="url(#paint1_linear_2002_20)"/>
<path id="Vector_8" fill-rule="evenodd" clip-rule="evenodd" d="M68.4818 64.1512C68.6034 64.1512 68.6637 64.226 68.7054 64.2728C69.7942 65.1882 70.8635 66.0833 71.9337 66.98C72.7599 67.6804 73.5733 68.3953 74.3902 69.0617C74.6707 69.2665 74.6707 69.3583 74.3621 69.5122C71.4101 71.2453 68.4529 72.9411 65.5332 74.7074C65.2297 74.8425 64.9909 75.0066 64.701 75.174C64.5846 75.2531 64.435 75.2531 64.2905 75.095C63.4447 74.3801 62.6551 73.6984 61.8051 72.9785C60.8403 72.1149 59.845 71.2708 58.8777 70.4565C58.5581 70.1599 58.5581 70.1369 58.927 69.9329C61.9589 68.0995 65.0283 66.238 68.0645 64.3807C68.1877 64.2966 68.356 64.2498 68.4818 64.1512Z" fill="url(#paint2_linear_2002_20)"/>
<path id="Vector_9" fill-rule="evenodd" clip-rule="evenodd" d="M50.3641 75.2208C50.3148 75.197 50.2638 75.174 50.1678 75.1273C46.9913 73.2632 43.8123 71.4043 40.6078 69.5402C40.5823 69.5402 40.5568 69.5122 40.5568 69.5122C40.3069 69.3396 40.3069 69.2665 40.51 69.0872C40.9325 68.697 41.4042 68.3468 41.8224 67.9779C42.9665 67.0013 44.1344 66.0348 45.3006 65.042C45.5998 64.7998 45.9245 64.5235 46.1931 64.2736C46.3708 64.1266 46.4898 64.1733 46.6674 64.2736C47.4596 64.7683 48.2773 65.2358 49.078 65.7382C51.3841 67.1551 53.7173 68.5381 56.0038 69.9329C56.0276 69.9567 56.0506 69.9865 56.0999 69.9865C56.3268 70.1361 56.3268 70.1828 56.1254 70.3511C55.6766 70.7761 55.2286 71.1527 54.7849 71.519C53.8618 72.318 52.9464 73.0864 52.0284 73.899C51.5779 74.3096 51.0874 74.7074 50.6361 75.1273C50.5604 75.174 50.5137 75.2208 50.3641 75.2208Z" fill="url(#paint3_linear_2002_20)"/>
<path id="Vector_10" fill-rule="evenodd" clip-rule="evenodd" d="M57.8407 76.6267C57.8407 74.8425 57.8407 73.0388 57.8407 71.2453C57.8407 71.1969 57.8407 71.0983 57.8407 71.0753C57.8407 71.0073 57.8127 70.879 57.9342 70.8297C58.0116 70.7761 58.1093 70.879 58.1866 70.9002C58.6796 71.3507 59.205 71.729 59.675 72.1446C60.9126 73.1706 62.1579 74.1838 63.4006 75.1978C63.7414 75.4732 64.0916 75.7444 64.3628 76.0198C64.5872 76.1694 64.7036 76.1974 64.9093 76.0946C65.8715 75.5761 66.8201 75.0295 67.7636 74.5017C67.988 74.3988 68.0951 74.4549 68.0951 74.7074C68.0951 75.174 68.0951 75.6041 68.0951 76.0427C68.0951 76.2535 68.0441 76.3649 67.8945 76.4728C66.152 77.5234 64.4375 78.5562 62.7324 79.5889C61.2398 80.5086 59.7779 81.4292 58.264 82.3497C58.162 82.4101 58.0354 82.5554 57.9351 82.4619C57.8135 82.4109 57.8415 82.2333 57.8415 82.1168C57.8407 80.28 57.8407 78.4763 57.8407 76.6267Z" fill="url(#paint4_linear_2002_20)"/>
<path id="Vector_11" fill-rule="evenodd" clip-rule="evenodd" d="M57.0697 76.6266C57.0697 78.4201 57.0697 80.2281 57.0697 82.0173C57.0697 82.087 57.0697 82.1525 57.0697 82.2137C57.0697 82.4848 56.9669 82.5265 56.745 82.382C55.2779 81.4946 53.7666 80.574 52.3004 79.6866C50.6114 78.6122 48.8757 77.5752 47.1876 76.5144C46.9377 76.3835 46.8655 76.2526 46.8655 76.0197C46.891 75.6228 46.891 75.1978 46.891 74.777C46.891 74.4829 46.9377 74.3988 47.2344 74.5713C48.1821 75.0762 49.1494 75.6041 50.0904 76.1175C50.2638 76.1965 50.3641 76.1685 50.5128 76.0427C52.1032 74.7532 53.6638 73.4646 55.2269 72.1684C55.7038 71.7944 56.173 71.4042 56.6209 71.0311C56.6932 70.9707 56.7935 70.9002 56.8683 70.856C56.966 70.8016 57.0391 70.8305 57.0689 70.9257C57.0689 71.0311 57.0689 71.0991 57.0689 71.1968C57.0697 73.0065 57.0697 74.8238 57.0697 76.6266Z" fill="url(#paint5_linear_2002_20)"/>
</g>
</g>
</g>
<defs>
<filter id="filter0_d_2002_20" x="-7.62939e-06" y="0" width="110" height="110" filterUnits="userSpaceOnUse" color-interpolation-filters="sRGB">
<feFlood flood-opacity="0" result="BackgroundImageFix"/>
<feColorMatrix in="SourceAlpha" type="matrix" values="0 0 0 0 0 0 0 0 0 0 0 0 0 0 0 0 0 0 127 0" result="hardAlpha"/>
<feOffset dy="4"/>
<feGaussianBlur stdDeviation="2"/>
<feComposite in2="hardAlpha" operator="out"/>
<feColorMatrix type="matrix" values="0 0 0 0 0.34902 0 0 0 0 0.12549 0 0 0 0 0.992157 0 0 0 0.42 0"/>
<feBlend mode="normal" in2="BackgroundImageFix" result="effect1_dropShadow_2002_20"/>
<feBlend mode="normal" in="SourceGraphic" in2="effect1_dropShadow_2002_20" result="shape"/>
</filter>
<filter id="filter1_d_2002_20" x="35.8477" y="51.1462" width="43.2262" height="39.3463" filterUnits="userSpaceOnUse" color-interpolation-filters="sRGB">
<feFlood flood-opacity="0" result="BackgroundImageFix"/>
<feColorMatrix in="SourceAlpha" type="matrix" values="0 0 0 0 0 0 0 0 0 0 0 0 0 0 0 0 0 0 127 0" result="hardAlpha"/>
<feOffset dy="4"/>
<feGaussianBlur stdDeviation="2"/>
<feComposite in2="hardAlpha" operator="out"/>
<feColorMatrix type="matrix" values="0 0 0 0 0 0 0 0 0 0 0 0 0 0 0 0 0 0 0.25 0"/>
<feBlend mode="normal" in2="BackgroundImageFix" result="effect1_dropShadow_2002_20"/>
<feBlend mode="normal" in="SourceGraphic" in2="effect1_dropShadow_2002_20" result="shape"/>
</filter>
<linearGradient id="paint0_linear_2002_20" x1="62.0195" y1="49.2579" x2="70.7382" y2="60.704" gradientUnits="userSpaceOnUse">
<stop offset="0.605" stop-color="#5920FD"/>
<stop offset="0.725" stop-color="#361399"/>
<stop offset="1" stop-color="#351397"/>
</linearGradient>
<linearGradient id="paint1_linear_2002_20" x1="43.9123" y1="49.2792" x2="52.6075" y2="60.719" gradientUnits="userSpaceOnUse">
<stop offset="0.605" stop-color="#5920FD"/>
<stop offset="0.725" stop-color="#361399"/>
<stop offset="1" stop-color="#351397"/>
</linearGradient>
<linearGradient id="paint2_linear_2002_20" x1="62.4316" y1="62.3941" x2="70.5417" y2="73.0567" gradientUnits="userSpaceOnUse">
<stop offset="0.605" stop-color="#5920FD"/>
<stop offset="0.725" stop-color="#361399"/>
<stop offset="1" stop-color="#351397"/>
</linearGradient>
<linearGradient id="paint3_linear_2002_20" x1="44.1407" y1="62.4283" x2="52.225" y2="73.0611" gradientUnits="userSpaceOnUse">
<stop offset="0.605" stop-color="#5920FD"/>
<stop offset="0.725" stop-color="#361399"/>
<stop offset="1" stop-color="#351397"/>
</linearGradient>
<linearGradient id="paint4_linear_2002_20" x1="60.2733" y1="68.9615" x2="68.9348" y2="75.9049" gradientUnits="userSpaceOnUse">
<stop offset="0.605" stop-color="#5920FD"/>
<stop offset="0.725" stop-color="#361399"/>
<stop offset="1" stop-color="#351397"/>
</linearGradient>
<linearGradient id="paint5_linear_2002_20" x1="49.2883" y1="68.9827" x2="57.9151" y2="75.888" gradientUnits="userSpaceOnUse">
<stop offset="0.605" stop-color="#5920FD"/>
<stop offset="0.725" stop-color="#361399"/>
<stop offset="1" stop-color="#351397"/>
</linearGradient>
</defs>
</svg>
