<svg width="199" height="15" viewBox="0 0 199 15" fill="none" xmlns="http://www.w3.org/2000/svg">
<path id="Vector" d="M1.35547 11.7645C34.228 11.7645 67.1005 11.8874 100.09 12.256C116.176 12.3788 132.263 12.8703 148.349 12.8703C156.159 12.8703 164.086 12.8703 171.896 13.4847C175.626 13.7304 179.24 14.2219 182.854 14.7133C187.4 15.3277 190.547 14.8362 195.094 14.3447C198.94 13.9761 200.572 8.93857 197.075 6.6041C193.695 4.26963 191.48 2.30376 187.4 1.56656C183.67 0.829355 179.94 0.583621 176.093 0.337887C168.283 -0.15358 160.356 -0.0307204 152.546 0.215013C135.76 0.70648 119.09 1.68941 102.304 2.67235C68.6159 4.51535 34.9274 6.60409 1.35547 8.93856C-0.393069 8.93856 -0.509638 11.7645 1.35547 11.7645Z" fill="#521EE6"/>
</svg>
